#!OML:ASF F:\VICON\USERDATA\INSTALL\rory3\rory3.ASF
:FULLY-SPECIFIED
:DEGREES
36
root 0.39419832712338787 17.782132582142882 5.461164903717986 -1.6977854358545157 1.945034678102044 1.8237542259971042
lfemur 16.2189841599707 -4.40945613634218 -25.47461772632255
ltibia 22.98104002396885
lfoot -6.489059787122982 -5.926291926106284
ltoes -16.640756818229956
rfemur -27.203484211683005 5.415942014735622 19.35209357440103
rtibia 23.73126017413906
rfoot -3.648362854913998 -6.1964972383354695
rtoes -0.21823377308316116
lowerback 9.30097543447297 -1.5441363516232638 -3.5965441604911863
upperback 0.2673649441447129 -2.356571289215771 1.8892923451522436
thorax -4.644957620583787 -1.0726509970925022 4.209412835697187
lowerneck -16.893965277428055 -2.6920655754957434 -2.0529095404381157
upperneck 21.55074299128879 -3.27776643858968 0.08583406210163291
head 9.666910445025492 -1.6663048408608343 -0.011758961278959007
lclavicle -1.4075673828539094e-15 1.4095429497191404e-15
lhumerus -23.00140838125309 -3.7377242790932224 82.59178381829075
lradius 31.896745614182766
lwrist 7.774299496692716
lhand -28.658536493334157 25.147943925877897
lfingers 7.12502
lthumb -2.0218450371709995 55.10795933485635
rclavicle -1.4075673828539094e-15 1.4095429497191404e-15
rhumerus -33.12438560886948 -27.38004106277586 -73.58420810336904
rradius 19.923272080360263
rwrist 13.044192359911492
rhand -17.833312687610338 21.494519576109525
rfingers 7.12502
rthumb 8.431100082008285 -8.316527182580414
37
root 0.2823281632905359 17.85015211499857 6.028439831100643 -2.1979761558626563 1.987708085052898 0.22540934275411617
lfemur 13.281860221580676 -4.218470457104334 -23.003388702844628
ltibia 31.646580950179825
lfoot 0.11456506635646768 -10.156444955602295
ltoes -17.70676914331243
rfemur -25.5504194651804 5.168405031775044 21.86878601040138
rtibia 26.90994776727264
rfoot -3.4165216529832616 -4.066932339733636
rtoes 3.637340600902605
lowerback 9.364602456853694 -1.6464502747999226 -2.356376114296583
upperback 0.24233058465238025 -2.3297052497599253 2.370601853444237
thorax -4.733318708659178 -1.079734056768977 3.9547848776600145
lowerneck -16.832254024156892 -2.659534011593444 -2.023952246763203
upperneck 21.670281202881863 -3.2180247917442406 -0.10036786936912712
head 9.68708778030194 -1.649487101566323 -0.059704260275915105
lclavicle -1.6528054611287288e-15 1.1836608005369416e-15
lhumerus -24.61285614926995 -3.0049645933074203 83.02390840093527
lradius 31.130211799928276
lwrist 7.413864387286237
lhand -28.389652566826797 24.87500241492924
lfingers 7.12502
lthumb -1.7621898682984165 54.83560758480588
rclavicle -1.6528054611287288e-15 1.1836608005369416e-15
rhumerus -33.60446383356129 -28.364756490044833 -72.76413650396573
rradius 19.400358254345804
rwrist 13.943112505046269
rhand -17.724406257253296 21.58962605352483
rfingers 7.12502
rthumb 8.536194365604146 -8.217100455411584
38
root 0.18457501965338347 17.953244735884386 7.657725500241728 -2.671283277318073 2.0956297419737386 -1.2771190065617513
lfemur 9.17021794031394 -3.2727318359051845 -19.870950829515913
ltibia 42.81650793612815
lfoot 7.510198227968803 -13.753047252847784
ltoes -14.603523430537813
rfemur -22.536484069840554 5.300178462626157 24.68639087331326
rtibia 29.61769227995591
rfoot -3.926718160943964 -3.317528678758688
rtoes 7.067922582572471
lowerback 9.541235453552758 -1.5794643990907606 -0.8603202050308043
upperback 0.24656193731083562 -2.054343867583713 2.837664567469721
thorax -4.838749110718564 -0.9693476130039134 3.6844039028236786
lowerneck -16.69600757379921 -2.6684199068810104 -1.97419854805375
upperneck 21.770906791623812 -3.241701887822655 -0.08324785157868808
head 9.70080940009099 -1.6577406689450542 -0.05968069049696781
lclavicle -1.1904009620462192e-15 1.6093707913619082e-15
lhumerus -26.150731527934383 -2.66463398091574 83.60074384401757
lradius 30.417453087219293
lwrist 7.066096593195709
lhand -27.663860068440467 24.64246768259619
lfingers 7.12502
lthumb -1.0612632916247982 54.606316170110894
rclavicle -1.1904009620462192e-15 1.6093707913619082e-15
rhumerus -33.51718304067194 -27.993869688779217 -72.70257016794304
rradius 19.436916916676424
rwrist 13.840508017958344
rhand -17.470439166832225 22.012064795404957
rfingers 7.12502
rthumb 8.781271240565362 -7.7864199266683185
39
root 0.08807296602063108 18.058351692477764 8.338846317558293 -3.105374294763446 1.9166334282771387 -2.743938632232385
lfemur 3.4558221831549805 -2.1761591746568536 -17.167531771256943
ltibia 52.860457579205594
lfoot 12.42860202331591 -15.602850612497114
ltoes -9.722869663689075
rfemur -19.48851108521611 5.5714213584852805 26.991661051160598
rtibia 30.400699944874106
rfoot -5.415012395384053 -3.948575318236617
rtoes 8.669262071133888
lowerback 9.719906486703987 -1.4078854836825485 0.3958650316119122
upperback 0.28093764577743396 -1.669351519663227 3.0944338619844824
thorax -4.949756548598982 -0.8026059063599027 3.179334085352829
lowerneck -16.587874605010914 -2.736710182047552 -1.9534692271377925
upperneck 21.789902162256595 -3.3725094086351057 0.0787177163767756
head 9.689189250664139 -1.701773003736531 -0.034234057348748875
lclavicle -1.3740578732485727e-15 1.4400983882881063e-15
lhumerus -27.621371352010133 -2.8339870738757558 84.12020615990454
lradius 29.522641386650946
lwrist 6.296229964571707
lhand -26.858328178859928 24.56505495631559
lfingers 7.12502
lthumb -0.283319479353511 54.53275744834692
rclavicle -1.3740578732485727e-15 1.4400983882881063e-15
rhumerus -33.030499979133445 -26.931020285716883 -73.56864428367182
rradius 19.69003708957029
rwrist 12.796278635560837
rhand -17.190274216535556 22.491722183544027
rfingers 7.12502
rthumb 9.051630077711854 -7.295032181646275
40
root 0.028743868961696395 18.15451274535655 9.747495113930597 -3.3970862773055557 1.6134148226780645 -3.6928178581302316
lfemur -1.973846182795019 -0.8130639289138772 -15.033150610306073
ltibia 61.44745410244141
lfoot 13.010028847766698 -14.678174361405976
ltoes -6.1107876221183535
rfemur -15.841158226102364 5.9778285877720325 28.978843912812728
rtibia 30.544864762258882
rfoot -7.104626924753001 -4.961756316540859
rtoes 8.952087354595479
lowerback 9.871093634683547 -1.0337444399925189 1.514100578455139
upperback 0.3660012752929029 -1.0419392474954035 3.1812791701788194
thorax -4.991310954100589 -0.5165048235549177 2.6675711576133594
lowerneck -16.460100449880496 -2.817063747664029 -1.9161016183873276
upperneck 21.75969790142438 -3.5284654416990846 0.36304367244190694
head 9.664947912030073 -1.752388061867694 0.021351637735165574
lclavicle -1.0333872466001522e-15 1.7536783961521554e-15
lhumerus -28.504036913673165 -2.885559710221692 84.53717086390823
lradius 28.759844853858183
lwrist 5.418765562281386
lhand -26.418520765873147 24.586652587384133
lfingers 7.12502
lthumb 0.14143223752462686 54.55798584914184
rclavicle -1.0333872466001522e-15 1.7536783961521554e-15
rhumerus -32.05475101854749 -25.271415067292537 -74.78680353720064
rradius 20.147439494403066
rwrist 11.75345668863238
rhand -16.891965038122116 23.024493274351673
rfingers 7.12502
rthumb 9.33950325566985 -6.750476258805446
41
root -0.01912270103955771 18.214359691845505 9.921022690120223 -3.640443176415241 0.9521442593815084 -4.392034449496233
lfemur -7.556106438415483 0.4967213738691898 -14.151530477453246
ltibia 66.66882344911944
lfoot 9.333465686893167 -12.25957263398806
ltoes -5.051581427777085
rfemur -13.0860520550316 6.22696896628185 30.077445631226844
rtibia 29.638001489960686
rfoot -9.213824996179783 -5.933107339073843
rtoes 8.308631675067375
lowerback 9.91747499323131 -0.6208496332573893 2.1978895825204603
upperback 0.44001552099625696 -0.41575354106913864 3.055149689346555
thorax -5.006797906443389 -0.2243742791078437 2.006456955738478
lowerneck -16.351847030203327 -2.907010410109355 -1.9018711863157585
upperneck 21.70684241235297 -3.697519986149851 0.6013127351957022
head 9.632041858499182 -1.8090485460229988 0.05803162975056746
lclavicle -1.4452101720144909e-15 1.374373368576236e-15
lhumerus -29.472245098512307 -2.846796129332697 84.69346512527623
lradius 27.915057063763037
lwrist 4.740733360313314
lhand -26.577252716425562 24.30208440757283
lfingers 7.12502
lthumb -0.011841784598126126 54.27747700191863
rclavicle -1.4452101720144909e-15 1.3743733685762357e-15
rhumerus -31.041233937359056 -23.692066576644244 -76.23633156171977
rradius 20.579273780327657
rwrist 10.611712360370856
rhand -16.77593194907041 22.864628250799296
rfingers 7.12502
rthumb 9.451481337264434 -6.901718012821898
42
root -0.04021250867817988 18.244287005123926 10.159219616485 -3.747652818257776 0.13009867645570328 -4.772153916528369
lfemur -12.186177871420396 1.7120949368780436 -13.760746963751055
ltibia 69.33107501912295
lfoot 4.375992785057487 -9.141574880960384
ltoes -5.3786441742389695
rfemur -10.38535798558132 6.469916849014767 30.96808974565662
rtibia 29.248977392100368
rfoot -11.046443037317522 -6.3233825073211
rtoes 7.868814263917516
lowerback 9.948231033313139 -0.11474447211792183 2.8517206530420367
upperback 0.48996661408476083 0.3236201862350295 2.859484964721414
thorax -5.001265641573485 0.12360678603734748 1.3766175446574043
lowerneck -16.250247224759356 -2.97497958398979 -1.8586304604058559
upperneck 21.69170226196341 -3.8253785242167817 0.776833779107267
head 9.617083737386789 -1.8519783681330804 0.08167600446089916
lclavicle -1.4480933170578604e-15 1.3718486306510606e-15
lhumerus -30.404345083034833 -2.3007882923698038 84.677826643549
lradius 27.282214128462158
lwrist 4.711155214011619
lhand -26.67412699048865 24.19566023986062
lfingers 7.12502
lthumb -0.10536339534094763 54.17443011247496
rclavicle -1.4480933170578604e-15 1.3718486306510606e-15
rhumerus -29.891035702741185 -21.817534101291557 -77.52067253216067
rradius 21.24383332575562
rwrist 9.52009223851943
rhand -16.787249699457455 22.092343959781537
rfingers 7.12502
rthumb 9.440568679172586 -7.671261014644639
